<svg width="1725" height="5447" viewBox="0 0 1725 5447" fill="none" xmlns="http://www.w3.org/2000/svg">
<path d="M909.5 48.6192V48.6192C904.529 -14.7012 811.637 -14.7265 807 48.6192V48.6192V966.5C807 972.023 811.477 976.5 817 976.5H1543.5C1549.02 976.5 1553.5 980.977 1553.5 986.5V2687.5V3158C1553.5 3163.52 1549.02 3168 1543.5 3168H150C144.477 3168 140 3172.48 140 3178V5071C140 5076.52 144.477 5081 150 5081H1714C1719.52 5081 1724 5085.48 1724 5091V5436.5C1724 5442.02 1719.52 5446.5 1714 5446.5H0.5" stroke="#BAA067"/>
</svg>
