<svg width="25" height="25" viewBox="0 0 25 25" fill="none" xmlns="http://www.w3.org/2000/svg">
<path d="M17.0576 3.38525C18.2653 3.38886 19.4224 3.87019 20.2764 4.72413C21.1303 5.57807 21.6116 6.73523 21.6152 7.94287V17.0571C21.6116 18.2648 21.1303 19.4219 20.2764 20.2759C19.4224 21.1298 18.2653 21.6111 17.0576 21.6147H7.94336C6.73571 21.6111 5.57856 21.1298 4.72462 20.2759C3.87068 19.4219 3.38935 18.2648 3.38574 17.0571V7.94287C3.38935 6.73523 3.87068 5.57807 4.72462 4.72413C5.57856 3.87019 6.73571 3.38886 7.94336 3.38525H17.0576ZM17.0576 1.5625H7.94336C4.43408 1.5625 1.56299 4.43359 1.56299 7.94287V17.0571C1.56299 20.5664 4.43408 23.4375 7.94336 23.4375H17.0576C20.5669 23.4375 23.438 20.5664 23.438 17.0571V7.94287C23.438 4.43359 20.5669 1.5625 17.0576 1.5625Z" fill="white"/>
<path d="M18.4247 7.94287C18.1543 7.94287 17.89 7.86269 17.6652 7.71246C17.4403 7.56223 17.2651 7.3487 17.1616 7.09888C17.0581 6.84906 17.0311 6.57417 17.0838 6.30896C17.1366 6.04375 17.2668 5.80014 17.458 5.60894C17.6492 5.41773 17.8928 5.28752 18.158 5.23477C18.4232 5.18201 18.6981 5.20909 18.9479 5.31257C19.1978 5.41605 19.4113 5.59128 19.5615 5.81612C19.7117 6.04095 19.7919 6.30528 19.7919 6.57568C19.7923 6.75533 19.7572 6.93329 19.6886 7.09934C19.6201 7.26539 19.5194 7.41626 19.3924 7.54329C19.2653 7.67033 19.1145 7.77102 18.9484 7.83959C18.7824 7.90816 18.6044 7.94326 18.4247 7.94287ZM12.5004 8.854C13.2215 8.854 13.9265 9.06784 14.526 9.46847C15.1256 9.86909 15.5929 10.4385 15.8689 11.1047C16.1448 11.771 16.217 12.504 16.0764 13.2113C15.9357 13.9186 15.5884 14.5682 15.0785 15.0781C14.5686 15.588 13.919 15.9353 13.2117 16.0759C12.5045 16.2166 11.7714 16.1444 11.1052 15.8685C10.4389 15.5925 9.86952 15.1252 9.46889 14.5256C9.06827 13.926 8.85443 13.2211 8.85443 12.5C8.85547 11.5333 9.23993 10.6066 9.92346 9.92303C10.607 9.2395 11.5338 8.85504 12.5004 8.854ZM12.5004 7.03125C11.4188 7.03125 10.3615 7.35199 9.46215 7.9529C8.56282 8.55381 7.86188 9.40792 7.44796 10.4072C7.03405 11.4065 6.92575 12.5061 7.13676 13.5669C7.34777 14.6277 7.86862 15.6022 8.63344 16.367C9.39826 17.1318 10.3727 17.6527 11.4335 17.8637C12.4944 18.0747 13.5939 17.9664 14.5932 17.5525C15.5925 17.1386 16.4466 16.4376 17.0475 15.5383C17.6484 14.6389 17.9692 13.5816 17.9692 12.5C17.9692 11.0496 17.393 9.6586 16.3674 8.63301C15.3418 7.60742 13.9508 7.03125 12.5004 7.03125Z" fill="white"/>
</svg>
