<?xml version="1.0" encoding="iso-8859-1"?>
<!-- Generator: Adobe Illustrator 19.0.0, SVG Export Plug-In . SVG Version: 6.00 Build 0)  -->
<svg version="1.1" id="Layer_1" xmlns="http://www.w3.org/2000/svg" xmlns:xlink="http://www.w3.org/1999/xlink" x="0px" y="0px"
	 viewBox="0 0 512 512" style="enable-background:new 0 0 512 512;" xml:space="preserve">
<g>
	<g>
		<g>
			<path d="M393.752,117.213c-36.487-36.531-85.018-56.663-136.656-56.685c-106.579,0-193.323,86.702-193.368,193.275
				c-0.013,36.53,10.207,72.102,29.556,102.869l1.967,3.13l-17.311,63.241c-0.962,3.515,0.024,7.275,2.588,9.866
				c2.563,2.591,6.311,3.616,9.838,2.693l65.169-17.096l3.018,1.792c29.69,17.617,63.711,26.937,98.391,26.952h0.076
				c106.539,0,193.248-86.708,193.291-193.287C450.334,202.311,430.248,153.746,393.752,117.213z M257.019,426.853v10.199
				l-0.071-10.199c-31.017-0.014-61.442-8.347-87.983-24.096l-6.684-3.97c-1.589-0.944-3.39-1.43-5.208-1.43
				c-0.865,0-1.735,0.11-2.588,0.336l-52.206,13.695l13.83-50.525c0.754-2.756,0.318-5.701-1.203-8.121l-4.355-6.927
				c-17.301-27.51-26.439-59.325-26.427-92.004c0.04-95.329,77.634-172.885,172.965-172.885
				c46.184,0.02,89.593,18.026,122.229,50.702c32.646,32.679,50.614,76.122,50.593,122.325
				C429.874,349.291,352.316,426.853,257.019,426.853z"/>
			<path d="M436.562,74.432C388.635,26.458,324.874,0.024,257.02,0C117.128,0,3.271,113.845,3.214,253.779
				c-0.013,43.133,10.96,85.616,31.776,123.152L1.537,499.106c-0.962,3.515,0.023,7.276,2.586,9.867
				c1.94,1.962,4.561,3.027,7.251,3.027c0.862,0,1.732-0.109,2.588-0.333l125.271-32.858
				c36.131,18.948,76.732,28.953,117.789,28.969c139.893,0,253.75-113.852,253.805-253.794
				C510.85,186.167,484.476,122.401,436.562,74.432z M256.927,487.38c-38.925-0.015-77.492-9.837-111.528-28.405
				c-2.284-1.245-4.956-1.571-7.472-0.912L25.877,487.453l29.898-109.189c0.719-2.627,0.358-5.433-1.004-7.792
				c-20.397-35.344-31.172-75.693-31.159-116.686c0.052-128.69,104.759-233.387,233.404-233.387
				c62.401,0.022,121.039,24.331,165.114,68.449c44.065,44.116,68.319,102.759,68.297,165.129
				C490.376,382.676,385.67,487.38,256.927,487.38z"/>
		</g>
	</g>
</g>
<g>
	<g>
		<path d="M445.836,354.427c-4.835-2.887-11.098-1.31-13.986,3.527c-36.656,61.378-103.646,99.506-174.917,99.506
			c-5.633,0-10.155,4.566-10.155,10.199c0,5.633,4.61,10.199,10.243,10.199c39.401,0,78.177-10.435,112.138-30.175
			c32.931-19.143,60.666-46.554,80.205-79.27C452.252,363.577,450.673,357.316,445.836,354.427z"/>
	</g>
</g>
<g>
	<g>
		<path d="M464.692,305.386c-5.395-1.616-11.081,1.447-12.697,6.844c-1.168,3.899-2.474,7.819-3.881,11.65
			c-1.942,5.287,0.771,11.148,6.058,13.09c1.16,0.426,2.347,0.628,3.515,0.628c4.155,0,8.059-2.559,9.576-6.685
			c1.548-4.218,2.986-8.535,4.272-12.83C473.153,312.686,470.089,307.001,464.692,305.386z"/>
	</g>
</g>
<g>
	<g>
		<path d="M377.684,330.047l-57.246-57.246c-2.619-2.618-6.452-3.612-10.014-2.595l-8.526,2.436c-1.016,0.29-1.981,0.736-2.86,1.323
			l-18.762,12.52c-22.402-15.483-41.899-35.347-56.971-58.031l13.7-13.701c1.226-1.225,2.118-2.743,2.595-4.409l2.437-8.526
			c1.018-3.562,0.024-7.395-2.595-10.015l-57.246-57.246c-2.827-2.827-7.046-3.742-10.793-2.338l-9.744,3.654
			c-1.363,0.51-2.601,1.308-3.631,2.338c-33.863,33.863-33.862,88.963,0,122.826l93.177,93.177
			c16.934,16.934,39.17,25.397,61.413,25.397c22.237,0,44.483-8.467,61.411-25.395c1.029-1.03,1.827-2.268,2.338-3.631l3.654-9.744
			C381.426,337.096,380.511,332.875,377.684,330.047z M358.073,341.276c-12.751,11.968-29.099,17.949-45.456,17.947
			c-17.015-0.002-34.036-6.479-46.989-19.433l-93.177-93.177c-25.405-25.405-25.902-66.43-1.486-92.445l1.447-0.544l48.359,48.358
			l-0.061,0.214l-17.619,17.62c-3.331,3.331-3.947,8.51-1.49,12.53c18.324,29.986,43.615,55.909,73.14,74.969
			c3.415,2.204,7.813,2.171,11.194-0.085l23.1-15.414l1.222-0.351l48.359,48.36L358.073,341.276z"/>
	</g>
</g>
<g>
</g>
<g>
</g>
<g>
</g>
<g>
</g>
<g>
</g>
<g>
</g>
<g>
</g>
<g>
</g>
<g>
</g>
<g>
</g>
<g>
</g>
<g>
</g>
<g>
</g>
<g>
</g>
<g>
</g>
</svg>
