<svg width="25" height="25" viewBox="0 0 25 25" fill="none" xmlns="http://www.w3.org/2000/svg">
<path d="M17.0574 3.38525C18.265 3.38886 19.4222 3.87019 20.2761 4.72413C21.13 5.57807 21.6114 6.73523 21.615 7.94287V17.0571C21.6114 18.2648 21.13 19.4219 20.2761 20.2759C19.4222 21.1298 18.265 21.6111 17.0574 21.6147H7.94312C6.73547 21.6111 5.57832 21.1298 4.72438 20.2759C3.87044 19.4219 3.3891 18.2648 3.3855 17.0571V7.94287C3.3891 6.73523 3.87044 5.57807 4.72438 4.72413C5.57832 3.87019 6.73547 3.38886 7.94312 3.38525H17.0574ZM17.0574 1.5625H7.94312C4.43384 1.5625 1.56274 4.43359 1.56274 7.94287V17.0571C1.56274 20.5664 4.43384 23.4375 7.94312 23.4375H17.0574C20.5667 23.4375 23.4377 20.5664 23.4377 17.0571V7.94287C23.4377 4.43359 20.5667 1.5625 17.0574 1.5625Z" fill="#111111"/>
<path d="M18.4245 7.94287C18.1541 7.94287 17.8898 7.86269 17.6649 7.71246C17.4401 7.56223 17.2649 7.3487 17.1614 7.09888C17.0579 6.84906 17.0308 6.57417 17.0836 6.30896C17.1363 6.04375 17.2665 5.80014 17.4578 5.60894C17.649 5.41773 17.8926 5.28752 18.1578 5.23477C18.423 5.18201 18.6979 5.20909 18.9477 5.31257C19.1975 5.41605 19.411 5.59128 19.5613 5.81612C19.7115 6.04095 19.7917 6.30528 19.7917 6.57568C19.7921 6.75533 19.757 6.93329 19.6884 7.09934C19.6198 7.26539 19.5191 7.41626 19.3921 7.54329C19.2651 7.67033 19.1142 7.77102 18.9482 7.83959C18.7821 7.90816 18.6042 7.94326 18.4245 7.94287ZM12.5002 8.854C13.2213 8.854 13.9262 9.06784 14.5258 9.46847C15.1254 9.86909 15.5927 10.4385 15.8686 11.1047C16.1446 11.771 16.2168 12.504 16.0761 13.2113C15.9354 13.9186 15.5882 14.5682 15.0783 15.0781C14.5684 15.588 13.9187 15.9353 13.2115 16.0759C12.5042 16.2166 11.7711 16.1444 11.1049 15.8685C10.4387 15.5925 9.86928 15.1252 9.46865 14.5256C9.06802 13.926 8.85419 13.2211 8.85419 12.5C8.85522 11.5333 9.23969 10.6066 9.92322 9.92303C10.6068 9.2395 11.5335 8.85504 12.5002 8.854ZM12.5002 7.03125C11.4186 7.03125 10.3612 7.35199 9.46191 7.9529C8.56258 8.55381 7.86164 9.40792 7.44772 10.4072C7.0338 11.4065 6.9255 12.5061 7.13652 13.5669C7.34753 14.6277 7.86838 15.6022 8.6332 16.367C9.39801 17.1318 10.3725 17.6527 11.4333 17.8637C12.4941 18.0747 13.5937 17.9664 14.593 17.5525C15.5923 17.1386 16.4464 16.4376 17.0473 15.5383C17.6482 14.6389 17.9689 13.5816 17.9689 12.5C17.9689 11.0496 17.3928 9.6586 16.3672 8.63301C15.3416 7.60742 13.9506 7.03125 12.5002 7.03125Z" fill="#111111"/>
</svg>
