<svg width="23" height="23" viewBox="0 0 23 23" fill="none" xmlns="http://www.w3.org/2000/svg">
<path fill-rule="evenodd" clip-rule="evenodd" d="M19.2507 3.74126C18.2395 2.72958 17.0382 1.92789 15.7159 1.38235C14.3937 0.836813 12.9765 0.5582 11.5461 0.56255C5.54321 0.56255 0.656494 5.42485 0.654053 11.4024C0.651397 13.3058 1.15312 15.1759 2.10815 16.8223L0.562744 22.4376L6.33667 20.9302C7.93492 21.7961 9.72404 22.2492 11.5417 22.2486H11.5461C17.5486 22.2486 22.4348 17.3858 22.4377 11.4087C22.4414 9.98323 22.1615 8.57123 21.6143 7.2549C21.0672 5.93857 20.2638 4.74419 19.2507 3.74126ZM11.5461 20.419H11.5422C9.92182 20.4195 8.33086 19.9858 6.93481 19.1631L6.60425 18.9678L3.17798 19.8624L4.09253 16.5376L3.8772 16.1959C2.97114 14.7614 2.49109 13.0991 2.49292 11.4024C2.49292 6.43511 6.55591 2.3936 11.5496 2.3936C13.9451 2.38933 16.2442 3.33674 17.9412 5.02745C19.6382 6.71817 20.5942 9.01373 20.5989 11.4092C20.5969 16.377 16.5359 20.419 11.5461 20.419ZM16.5115 13.6714C16.2395 13.5357 14.9001 12.8804 14.6521 12.7901C14.4041 12.6998 14.2209 12.6543 14.0398 12.9258C13.8586 13.1973 13.3367 13.8047 13.178 13.9878C13.0193 14.1709 12.8606 14.191 12.5886 14.0552C12.3167 13.9195 11.4392 13.6338 10.3997 12.711C9.59058 11.9927 9.04468 11.106 8.88599 10.835C8.72729 10.564 8.8689 10.417 9.00513 10.2823C9.12769 10.1607 9.2771 9.96587 9.41333 9.80767C9.54956 9.64946 9.59497 9.53618 9.6853 9.35552C9.77563 9.17485 9.73071 9.01665 9.66284 8.8814C9.59497 8.74614 9.05054 7.41265 8.82397 6.87017C8.60278 6.34185 8.37866 6.41362 8.21167 6.40532C8.05298 6.39751 7.86987 6.39556 7.6897 6.39556C7.55196 6.39914 7.41644 6.43109 7.2916 6.48939C7.16675 6.54769 7.05527 6.63111 6.96411 6.73443C6.7146 7.00591 6.01147 7.66216 6.01147 8.99419C6.01147 10.3262 6.98804 11.6153 7.1228 11.7959C7.25757 11.9766 9.04175 14.7125 11.7717 15.8858C12.2787 16.1029 12.7966 16.2933 13.3235 16.4561C13.9753 16.6622 14.5686 16.6334 15.0374 16.5635C15.5603 16.4859 16.6487 15.9083 16.8748 15.2754C17.1008 14.6426 17.1013 14.1006 17.0334 13.9878C16.9656 13.8751 16.7839 13.8067 16.5115 13.6714Z" fill="white"/>
</svg>
