<svg width="23" height="23" viewBox="0 0 23 23" fill="none" xmlns="http://www.w3.org/2000/svg">
<path fill-rule="evenodd" clip-rule="evenodd" d="M19.2505 3.74126C18.2393 2.72958 17.038 1.92789 15.7157 1.38235C14.3934 0.836813 12.9763 0.5582 11.5459 0.56255C5.54297 0.56255 0.65625 5.42485 0.653809 11.4024C0.651153 13.3058 1.15288 15.1759 2.10791 16.8223L0.5625 22.4376L6.33643 20.9302C7.93468 21.7961 9.72379 22.2492 11.5415 22.2486H11.5459C17.5483 22.2486 22.4346 17.3858 22.4375 11.4087C22.4411 9.98323 22.1612 8.57123 21.6141 7.2549C21.067 5.93857 20.2635 4.74419 19.2505 3.74126ZM11.5459 20.419H11.542C9.92157 20.4195 8.33062 19.9858 6.93457 19.1631L6.604 18.9678L3.17773 19.8624L4.09229 16.5376L3.87695 16.1959C2.97089 14.7614 2.49084 13.0991 2.49268 11.4024C2.49268 6.43511 6.55566 2.3936 11.5493 2.3936C13.9448 2.38933 16.2439 3.33674 17.941 5.02745C19.638 6.71817 20.594 9.01373 20.5986 11.4092C20.5967 16.377 16.5356 20.419 11.5459 20.419ZM16.5112 13.6714C16.2393 13.5357 14.8999 12.8804 14.6519 12.7901C14.4038 12.6998 14.2207 12.6543 14.0396 12.9258C13.8584 13.1973 13.3364 13.8047 13.1777 13.9878C13.019 14.1709 12.8604 14.191 12.5884 14.0552C12.3164 13.9195 11.439 13.6338 10.3994 12.711C9.59033 11.9927 9.04443 11.106 8.88574 10.835C8.72705 10.564 8.86865 10.417 9.00488 10.2823C9.12744 10.1607 9.27686 9.96587 9.41309 9.80767C9.54932 9.64946 9.59473 9.53618 9.68506 9.35552C9.77539 9.17485 9.73047 9.01665 9.6626 8.8814C9.59473 8.74614 9.05029 7.41265 8.82373 6.87017C8.60254 6.34185 8.37842 6.41362 8.21143 6.40532C8.05273 6.39751 7.86963 6.39556 7.68945 6.39556C7.55171 6.39914 7.41619 6.43109 7.29135 6.48939C7.16651 6.54769 7.05503 6.63111 6.96387 6.73443C6.71436 7.00591 6.01123 7.66216 6.01123 8.99419C6.01123 10.3262 6.98779 11.6153 7.12256 11.7959C7.25732 11.9766 9.0415 14.7125 11.7715 15.8858C12.2784 16.1029 12.7964 16.2933 13.3232 16.4561C13.9751 16.6622 14.5684 16.6334 15.0371 16.5635C15.5601 16.4859 16.6484 15.9083 16.8745 15.2754C17.1006 14.6426 17.1011 14.1006 17.0332 13.9878C16.9653 13.8751 16.7837 13.8067 16.5112 13.6714Z" fill="#111111"/>
</svg>
